<svg id="Capa_1" enable-background="new 0 0 512 512" height="150" viewBox="0 0 512 512" width="150" xmlns="http://www.w3.org/2000/svg"><g><path d="m512 391h-30v-270h30v-90h-512v90h30.001v270h-30.001v90h512zm-30-300h-51v-30h51zm-371 0v-30h50v30zm80-30h50v30h-50zm80 0h50v30h-50zm80 0h50v30h-50zm-321 0h51v30h-51zm30 60h392.001v270h-392.001zm101 300v30h-50v-30zm30 0h50v30h-50zm80 0h50v30h-50zm80 0h50v30h-50zm-321 0h51v30h-51zm452 30h-51v-30h51z"/><path d="m211 167.972v176.056l132.042-88.028zm30 56.056 47.958 31.972-47.958 31.972z"/></g></svg>
